<?xml version="1.0" encoding="iso-8859-1"?>
<!-- Uploaded to: SVG Repo, www.svgrepo.com, Generator: SVG Repo Mixer Tools -->
<svg height="800px" width="800px" version="1.1" id="Layer_1" xmlns="http://www.w3.org/2000/svg" xmlns:xlink="http://www.w3.org/1999/xlink" 
	 viewBox="0 0 503.467 503.467" xml:space="preserve">
<g transform="translate(5 1)">
	<path style="fill:#80D6FA;" d="M67.533,71.533V498.2c-18.773,0-34.133-15.36-34.133-34.133V37.4
		C33.4,71.533,67.533,71.533,67.533,71.533L67.533,71.533z"/>
	<path style="fill:#AAB1BA;" d="M101.667,37.4v34.133H67.533c0,0-34.133,0-34.133-34.133v-8.533c0-14.507,11.093-25.6,25.6-25.6
		h401.067C450.68,3.267,443,18.627,443,37.4H169.933H101.667z M460.067,71.533H169.933V37.4H443
		C443,56.173,450.68,71.533,460.067,71.533z"/>
	<path style="fill:#80D6FA;" d="M460.067,71.533v392.533c0,17.92-15.36,34.133-34.133,34.133h-358.4V71.533h34.133V139.8
		l34.133-34.133l34.133,34.133V71.533H460.067z"/>
	<polygon style="fill:#F2EDDA;" points="152.867,310.467 340.6,310.467 340.6,173.933 152.867,173.933 	"/>
	<polygon style="fill:#FF7474;" points="169.933,71.533 169.933,139.8 135.8,105.667 101.667,139.8 101.667,71.533 101.667,37.4 
		169.933,37.4 	"/>
</g>
<path style="fill:#51565F;" d="M430.933,503.467h-358.4c-20.48,0-38.4-17.92-38.4-38.4v-435.2C34.133,13.653,47.787,0,64,0h401.067
	c2.56,0,4.267,1.707,4.267,4.267s-1.707,4.267-4.267,4.267H64c-11.947,0-21.333,9.387-21.333,21.333V38.4
	c0,29.013,29.013,29.867,29.867,29.867c2.56,0,4.267,1.707,4.267,4.267v392.533c0,2.56-1.707,4.267-4.267,4.267
	c-2.56,0-4.267-1.707-4.267-4.267V76.8c-7.68-0.853-18.773-4.267-25.6-12.8v401.067c0,16.213,13.653,29.867,29.867,29.867h358.4
	c16.213,0,29.867-13.653,29.867-29.867V76.8H209.067c-2.56,0-4.267-1.707-4.267-4.267c0-2.56,1.707-4.267,4.267-4.267h256
	c2.56,0,4.267,1.707,4.267,4.267v392.533C469.333,485.547,451.413,503.467,430.933,503.467z M345.6,315.733H157.867
	c-2.56,0-4.267-1.707-4.267-4.267V174.933c0-2.56,1.707-4.267,4.267-4.267H345.6c2.56,0,4.267,1.707,4.267,4.267v136.533
	C349.867,314.027,348.16,315.733,345.6,315.733z M162.133,307.2h179.2v-128h-179.2V307.2z M294.4,264.533h-85.333
	c-2.56,0-4.267-1.707-4.267-4.267c0-2.56,1.707-4.267,4.267-4.267H294.4c2.56,0,4.267,1.707,4.267,4.267
	C298.667,262.827,296.96,264.533,294.4,264.533z M260.267,230.4h-51.2c-2.56,0-4.267-1.707-4.267-4.267s1.707-4.267,4.267-4.267
	h51.2c2.56,0,4.267,1.707,4.267,4.267S262.827,230.4,260.267,230.4z M174.933,145.067c-0.853,0-2.56-0.853-3.413-0.853l-30.72-30.72
	l-30.72,30.72c-0.853,0.853-3.413,1.707-4.267,0.853c-1.707-0.853-2.56-2.56-2.56-4.267V42.667H73.387
	c-2.56,0-4.267-1.707-4.267-4.267s1.707-4.267,4.267-4.267h34.133c2.56,0,4.267,1.707,4.267,4.267v92.16l26.453-26.453
	c1.707-1.707,4.267-1.707,5.973,0l26.453,26.453V38.4c0-2.56,1.707-4.267,4.267-4.267H448c2.56,0,4.267,1.707,4.267,4.267
	s-1.707,4.267-4.267,4.267H179.2V140.8c0,1.707-0.853,3.413-2.56,4.267C175.787,145.067,175.787,145.067,174.933,145.067z"/>
</svg>